<svg xmlns="http://www.w3.org/2000/svg" xmlns:xlink="http://www.w3.org/1999/xlink" viewBox="0 0 127.36 17.48"><defs><linearGradient id="linear-gradient" x1="97.76" y1="8.94" x2="126.86" y2="8.94" gradientUnits="userSpaceOnUse"><stop offset="0" stop-color="gray"/><stop offset="1" stop-color="#333"/></linearGradient></defs><title>bikespoty</title><g id="Layer_2" data-name="Layer 2"><g id="bikespoty_copy" data-name="bikespoty copy"><path d="M49.36,1.63c.6,5,.45,10.08.72,15.12.05,1,1.55,1,1.5,0-.27-5-.12-10.1-.72-15.12-.11-.95-1.61-1-1.5,0Z"/><path d="M50,1.79c2.67-.16,9-.88,9.34,2.83.42,3.92-5.37,4.59-8.15,3.72-.92-.29-1.32,1.16-.4,1.45,2.3.71,4.18.31,6.48-.22a4.14,4.14,0,0,0,3.59-4.23c.35-5.68-7-5.27-10.86-5-1,.06-1,1.56,0,1.5Z"/><path d="M45.21,1.1c-4-2.74-11.26,2.76-8.12,7.2,1.53,2.16,4.13,1.07,6.18.66,3-.59,5.28.63,3.4,3.77-1.63,2.71-4.27,3.9-7.26,2.3-.85-.46-1.61.84-.76,1.3A7,7,0,0,0,48.91,10.7a3.74,3.74,0,0,0-3.11-3.64c-1.19-.28-2.25.28-3.4.6-2.23.63-5.19-1.07-3.64-3.43,1.29-2,3.38-3.39,5.69-1.82.8.54,1.55-.76.76-1.3Z"/><path d="M83.27,1.59a34.3,34.3,0,0,0,5.07,8.13.75.75,0,0,0,1.18-.15c1.26-2.72,2.71-5.33,3.77-8.14.34-.9-1.11-1.3-1.45-.4-1,2.68-2.42,5.19-3.62,7.78l1.18-.15A32.91,32.91,0,0,1,84.56.83c-.42-.87-1.71-.11-1.3.76Z"/><path d="M88,8.86c.08,2.54.09,5.07.27,7.6.07,1,1.57,1,1.5,0-.18-2.53-.19-5.07-.27-7.6,0-1-1.53-1-1.5,0Z"/><path d="M65.89.33c-4.55,1-4.59,6.9-4.29,10.57s2.32,7.23,6.67,6.47c4.62-.8,4-6.53,3.87-10.15s-1.55-7.36-5.74-7c-1,.08-1,1.58,0,1.5,3.6-.31,4.24,3.15,4.24,6.05,0,1.8.43,6.33-1.12,7.59-1.28,1-4.41.31-5.42-.84s-.94-2.77-1-4.16c-.21-2.89-.37-7.76,3.24-8.58.94-.22.54-1.66-.4-1.45Z"/><path d="M72,1.73c3.26.34,6.55.09,9.81.31,1,.06,1-1.44,0-1.5C78.59.32,75.3.57,72,.23c-1-.1-1,1.4,0,1.5Z"/><path d="M76.29,1.65q.39,7.4.17,14.81a.75.75,0,0,0,1.5,0q.22-7.41-.17-14.81c-.05-1-1.55-1-1.5,0Z"/><path d="M0,1.28C0,6.18.57,11.06.61,16a.75.75,0,0,0,1.5,0c0-4.9-.57-9.78-.61-14.68a.75.75,0,0,0-1.5,0Z"/><path d="M.76,2c2.17-.21,5-.46,6.91.67q2.87.86.21,5A11.08,11.08,0,0,1,5.81,8C4.55,8.07,3.3,8,2,8.16c-.94.09-1,1.54,0,1.5,2.34-.1,8.44-1.45,8.68,2.37.3,4.88-6.61,3.46-9.36,3.18-1-.1-1,1.4,0,1.5,3.83.39,10.85,1.23,10.86-4.68C12.23,6.72,5.43,8,2,8.16v1.5c3.22-.32,9.87.35,9.15-5C10.6.21,4,.23.76.54c-1,.09-1,1.59,0,1.5Z"/><path d="M13.54,1.07l.2,15.24a.75.75,0,0,0,1.5,0L15,1.07a.75.75,0,0,0-1.5,0Z"/><path d="M17.14,1.12q.36,7.64.34,15.28a.75.75,0,0,0,1.5,0q0-7.64-.34-15.28c0-1-1.55-1-1.5,0Z"/><path d="M24.79,1.23A53.53,53.53,0,0,1,17.58,9a.76.76,0,0,0,.15,1.18,45.74,45.74,0,0,1,7.69,6.65c.67.7,1.73-.36,1.06-1.06a47.49,47.49,0,0,0-8-6.89l.15,1.18A54.86,54.86,0,0,0,26.09,2c.54-.8-.75-1.55-1.3-.76Z"/><path d="M35.32,0c-2.32.13-4.65.11-7,.28A.77.77,0,0,0,27.6,1c-.06,2.39-.07,4.79-.07,7.18,0,2.16-.48,5.1.08,7.18.25.95.35,1,1.21,1.25,1.88.65,5.05.09,7.07,0a.75.75,0,0,0,0-1.5,32.93,32.93,0,0,1-5.16,0c-2.18-.31-1.66-1.67-1.68-3.66,0-3.5,0-7,0-10.49l-.75.75c2.32-.17,4.65-.15,7-.28,1-.05,1-1.56,0-1.5Z"/><path d="M28.36,9.61c1.36-.09,2.72-.07,4.08-.08a8.45,8.45,0,0,0,2.7-.08c.88-.36.5-1.81-.4-1.45.18-.07-.6,0-.81,0h-1.8c-1.26,0-2.52,0-3.77.08-1,.06-1,1.56,0,1.5Z"/><g id="chain_copy" data-name="chain copy"><path d="M112.14,12.56a9.7,9.7,0,0,0-4.66,1,17.46,17.46,0,0,1-2.4,1.21A5.49,5.49,0,0,1,99.8,13.5a6.37,6.37,0,0,1-2-4.26V8.63a6.37,6.37,0,0,1,2-4.26,5.49,5.49,0,0,1,5.28-1.32,17.46,17.46,0,0,1,2.4,1.21,9.7,9.7,0,0,0,4.66,1h.35a9.7,9.7,0,0,0,4.66-1,17.46,17.46,0,0,1,2.4-1.21,5.49,5.49,0,0,1,5.28,1.32,6.37,6.37,0,0,1,2,4.26v.61a6.37,6.37,0,0,1-2,4.26,5.49,5.49,0,0,1-5.28,1.32,17.46,17.46,0,0,1-2.4-1.21,9.7,9.7,0,0,0-4.66-1Z" style="stroke:#000;stroke-miterlimit:10;fill:url(#linear-gradient)"/><circle cx="120.93" cy="8.71" r="2.48"/><circle cx="103.47" cy="8.71" r="2.48"/><path d="M117.37,4c-3.08,2.73-4,7-.33,9.75.15.12.3-.14.15-.26a5.46,5.46,0,0,1-2.26-5.14,7.82,7.82,0,0,1,2.65-4.14c.14-.13-.07-.34-.21-.21Z"/><path d="M106.91,4.2c2.87,2.59,3.87,6.7.38,9.29-.15.11,0,.37.15.26,3.66-2.72,2.75-7-.32-9.77-.14-.13-.36.08-.21.21Z"/></g></g></g></svg>