<?xml version="1.0" encoding="utf-8"?>
<!-- Generator: Adobe Illustrator 27.0.0, SVG Export Plug-In . SVG Version: 6.00 Build 0)  -->
<svg version="1.1" id="Layer_2_1_" xmlns="http://www.w3.org/2000/svg" xmlns:xlink="http://www.w3.org/1999/xlink" x="0px" y="0px"
	 viewBox="0 0 571.5 524" style="enable-background:new 0 0 571.5 524;" xml:space="preserve">
<style type="text/css">
	.st0{fill:#61DAFB;}
</style>
<g>
	<path class="st0" d="M566.3,263.6c0-37.1-46.5-72.3-117.8-94.2c16.5-72.7,9.1-130.5-23.1-149c-7.4-4.3-16.1-6.4-25.6-6.4v25.5
		c5.3,0,9.5,1,13,3c15.5,8.9,22.3,42.8,17,86.5c-1.3,10.7-3.3,22.1-5.8,33.6c-22.4-5.5-46.8-9.7-72.6-12.5
		C336,129,320,109.8,303.9,93c37.2-34.6,72.2-53.6,96-53.6V13.9l0,0c-31.4,0-72.6,22.4-114.1,61.2C244.2,36.6,203,14.4,171.6,14.4
		v25.5c23.7,0,58.7,18.9,96,53.2c-16,16.8-32,35.9-47.2,57c-25.8,2.7-50.3,7-72.7,12.6c-2.6-11.4-4.6-22.5-5.9-33.1
		c-5.4-43.6,1.3-77.6,16.7-86.6c3.4-2.1,7.9-3,13.1-3V14.5l0,0c-9.6,0-18.3,2.1-25.8,6.4c-32.1,18.5-39.3,76.2-22.7,148.7
		c-71.1,21.9-117.3,57-117.3,94c0,37.1,46.5,72.3,117.8,94.2c-16.5,72.7-9.1,130.5,23.1,149c7.4,4.3,16.1,6.4,25.7,6.4
		c31.4,0,72.6-22.4,114.1-61.2c41.6,38.6,82.7,60.8,114.1,60.8c9.6,0,18.3-2.1,25.8-6.4c32.1-18.5,39.3-76.2,22.7-148.7
		C520,335.8,566.3,300.6,566.3,263.6z M417.5,187.4c-4.2,14.7-9.5,29.9-15.4,45.1c-4.7-9.1-9.6-18.3-15-27.4
		c-5.3-9.1-10.9-18.1-16.5-26.7C386.9,180.8,402.5,183.7,417.5,187.4z M365.2,309.1c-8.9,15.4-18.1,30.1-27.5,43.6
		c-17,1.5-34.3,2.3-51.6,2.3c-17.3,0-34.5-0.8-51.4-2.2c-9.5-13.6-18.7-28.1-27.7-43.4c-8.7-15-16.6-30.2-23.8-45.5
		c7.1-15.3,15.1-30.6,23.7-45.6c8.9-15.4,18.1-30.1,27.5-43.6c17-1.5,34.3-2.3,51.6-2.3c17.3,0,34.5,0.8,51.4,2.2
		c9.5,13.6,18.7,28.1,27.7,43.4c8.7,15,16.6,30.2,23.8,45.5C381.6,278.8,373.8,294.1,365.2,309.1z M402.1,294.2
		c6.2,15.3,11.4,30.6,15.8,45.5c-15,3.7-30.7,6.7-47.1,9.1c5.6-8.8,11.2-17.8,16.5-27.1C392.5,312.6,397.4,303.4,402.1,294.2z
		 M286.2,416.1c-10.6-11-21.3-23.2-31.8-36.6c10.3,0.5,20.8,0.8,31.4,0.8c10.7,0,21.4-0.2,31.8-0.8
		C307.4,393,296.7,405.2,286.2,416.1z M201.2,348.8c-16.2-2.4-31.9-5.4-46.8-9c4.2-14.7,9.5-29.9,15.4-45.1
		c4.7,9.1,9.6,18.3,15,27.4C190.1,331.3,195.6,340.2,201.2,348.8z M285.7,111.1c10.6,11,21.3,23.2,31.8,36.6
		c-10.3-0.5-20.8-0.8-31.4-0.8c-10.7,0-21.4,0.2-31.8,0.8C264.5,134.3,275.1,122,285.7,111.1z M201.1,178.4
		c-5.6,8.8-11.2,17.8-16.5,27.1c-5.3,9.1-10.2,18.3-14.9,27.4c-6.2-15.3-11.4-30.6-15.8-45.5C169,183.9,184.8,180.8,201.1,178.4z
		 M97.7,321.4c-40.4-17.3-66.6-39.9-66.6-57.8c0-17.9,26.2-40.7,66.6-57.8c9.8-4.2,20.6-8,31.7-11.5c6.5,22.4,15.1,45.7,25.7,69.6
		c-10.5,23.8-19,47-25.4,69.2C118.4,329.5,107.6,325.7,97.7,321.4z M159.2,484.7c-15.5-8.9-22.3-42.8-17-86.5
		c1.3-10.7,3.3-22.1,5.8-33.6c22.4,5.5,46.8,9.7,72.6,12.5c15.4,21.1,31.4,40.3,47.5,57.1c-37.2,34.6-72.2,53.6-96,53.6
		C166.9,487.7,162.6,486.6,159.2,484.7z M430.2,397.6c5.4,43.6-1.3,77.6-16.7,86.6c-3.4,2.1-7.9,3-13.1,3c-23.7,0-58.7-18.9-96-53.2
		c16-16.8,32-35.9,47.2-57c25.8-2.7,50.3-7,72.7-12.6C426.9,375.9,428.9,387,430.2,397.6z M474.2,321.4c-9.8,4.2-20.6,8-31.7,11.5
		c-6.5-22.4-15.1-45.7-25.7-69.6c10.5-23.8,19-47,25.4-69.2c11.3,3.5,22.1,7.4,32.1,11.7c40.4,17.3,66.6,39.9,66.6,57.8
		C540.8,281.5,514.6,304.3,474.2,321.4z"/>
	<path class="st0" d="M171.5,14.4L171.5,14.4L171.5,14.4z"/>
	<circle class="st0" cx="285.9" cy="263.6" r="52.2"/>
	<path class="st0" d="M399.7,14.1L399.7,14.1L399.7,14.1z"/>
</g>
</svg>
