<?xml version="1.0" encoding="utf-8"?>
<!-- Generator: Adobe Illustrator 27.0.0, SVG Export Plug-In . SVG Version: 6.00 Build 0)  -->
<svg version="1.1" id="Layer_1" xmlns="http://www.w3.org/2000/svg" xmlns:xlink="http://www.w3.org/1999/xlink" x="0px" y="0px"
	 viewBox="0 0 100 100" style="enable-background:new 0 0 100 100;" xml:space="preserve">
<style type="text/css">
	.st0{fill:#764ABC;}
</style>
<g>
	<path class="st0" d="M68.4,68.1c3.4-0.4,6-3.3,5.9-6.9c-0.1-3.6-3.1-6.4-6.6-6.4h-0.2c-3.7,0.1-6.5,3.2-6.4,6.9
		c0.1,1.8,0.8,3.3,1.9,4.4c-4,7.9-10.2,13.7-19.4,18.6c-6.3,3.3-12.8,4.5-19.3,3.7c-5.3-0.7-9.5-3.1-12.1-7C8.3,75.6,8,69.3,11.2,63
		c2.3-4.5,5.8-7.8,8.1-9.5c-0.5-1.5-1.2-4.1-1.5-6C0.5,60,2.3,76.8,7.5,84.7c3.9,5.9,11.8,9.6,20.6,9.6c2.4,0,4.7-0.2,7.1-0.8
		C50.4,90.5,61.9,81.5,68.4,68.1z"/>
	<path class="st0" d="M89.2,53.4c-9-10.5-22.3-16.3-37.4-16.3h-1.9c-1.1-2.1-3.3-3.6-5.8-3.6h-0.2c-3.7,0.1-6.5,3.2-6.4,6.9
		c0.1,3.6,3.1,6.4,6.6,6.4h0.2c2.6-0.1,4.9-1.8,5.8-4h2.1c9,0,17.5,2.6,25.2,7.7c5.9,3.9,10.2,9,12.6,15.2c2,5,1.9,9.8-0.2,14
		c-3.3,6.3-8.9,9.7-16.2,9.7c-4.7,0-9.2-1.4-11.6-2.5c-1.3,1.2-3.7,3.1-5.3,4.3c5.1,2.4,10.3,3.7,15.3,3.7c11.4,0,19.8-6.3,23-12.6
		C98.4,75.4,98.1,63.5,89.2,53.4z"/>
	<path class="st0" d="M29.1,70.1c0.1,3.6,3.1,6.4,6.6,6.4h0.2c3.7-0.1,6.5-3.2,6.4-6.9c-0.1-3.6-3.1-6.4-6.6-6.4h-0.2
		c-0.2,0-0.6,0-0.8,0.1c-4.9-8.1-6.9-16.8-6.2-26.3c0.5-7.1,2.8-13.3,7-18.4c3.4-4.4,10.1-6.5,14.6-6.6
		c12.6-0.2,17.9,15.4,18.2,21.7c1.5,0.4,4.1,1.2,5.9,1.8C72.8,16.4,60.9,6.4,49.6,6.4c-10.7,0-20.5,7.7-24.4,19.1
		c-5.4,15.2-1.9,29.7,4.7,41.2C29.3,67.5,29,68.8,29.1,70.1z"/>
</g>
</svg>
