<svg xmlns="http://www.w3.org/2000/svg" xmlns:xlink="http://www.w3.org/1999/xlink" viewBox="0 0 131.4 17.75"><defs><radialGradient id="radial-gradient" cx="123.52" cy="8.52" r="7.5" gradientUnits="userSpaceOnUse"><stop offset="0.4" stop-color="#963838"/><stop offset="0.66" stop-color="#ee5f5e"/><stop offset="0.75" stop-color="#ec5e5d"/><stop offset="0.8" stop-color="#e35958"/><stop offset="0.85" stop-color="#d55251"/><stop offset="0.89" stop-color="#c14746"/><stop offset="0.92" stop-color="#a73a38"/><stop offset="0.95" stop-color="#872927"/><stop offset="0.98" stop-color="#621513"/><stop offset="1" stop-color="#490806"/></radialGradient></defs><title>skatespoty</title><g id="Layer_2" data-name="Layer 2"><g id="skatespoty_copy" data-name="skatespoty copy"><path d="M8.76,1C4.86-1.67-2,3.29.55,7.79,1.78,10,4.36,9.47,6.38,8.9c1.7-.48,2-1,3.46.27S11,11.41,9.8,13c-1.69,2.34-4,3.21-6.77,1.74-.85-.46-1.61.84-.76,1.3A6.89,6.89,0,0,0,12.4,10.81c.21-1.72-.47-4-2.43-4.29-1.26-.18-2.81.59-4,.92-2.2.62-5.12-1-3.59-3.38C3.66,2.13,5.72.72,8,2.26c.8.54,1.55-.76.76-1.3Z"/><path d="M12.48.94A99.29,99.29,0,0,1,13.81,17a.75.75,0,0,0,1.5,0A101.79,101.79,0,0,0,13.93.54c-.16-1-1.6-.55-1.45.4Z"/><path d="M21,1.85c-2.06,2.38-4.17,4.72-6.35,7a.77.77,0,0,0,0,1.06,53.73,53.73,0,0,0,7.14,7c.75.59,1.82-.46,1.06-1.06a53.72,53.72,0,0,1-7.14-7V9.92C17.86,7.64,20,5.29,22,2.91c.63-.73-.43-1.79-1.06-1.06Z"/><path d="M33.13,2.33c3.61-.34,7.22-.6,10.84-.7a.75.75,0,0,0,0-1.5c-3.62.1-7.23.37-10.84.7-1,.09-1,1.59,0,1.5Z"/><path d="M38,1.58c.19,5,0,10.19.54,15.2.1,1,1.6,1,1.5,0-.51-5-.35-10.17-.54-15.2,0-1-1.54-1-1.5,0Z"/><path d="M53.57.5C51.1.66,48.22.1,45.85.84a.75.75,0,0,0-.52.52c-.42,2.27.34,5,.48,7.34.16,2.64.33,5.26.7,7.88a.75.75,0,0,0,.72.55,60.1,60.1,0,0,1,7.14,0c1,0,1-1.46,0-1.5-1.23-.05-2.47-.2-3.7-.21-.52,0-2,.36-2.37.13-.94-.57-.76-3.21-.82-4.14-.09-1.26-.14-2.53-.23-3.8s-.68-3.27-.39-4.39c.52-2,4.93-1.11,6.72-1.23,1-.06,1-1.56,0-1.5Z"/><path d="M47.38,9.35c1.94.15,3.85-.2,5.79,0,1,.07,1-1.43,0-1.5-1.94-.15-3.85.2-5.79,0-1-.07-1,1.43,0,1.5Z"/><path d="M68,1.5c.59,5,.45,10,.71,15,.05,1,1.55,1,1.5,0-.26-5-.12-10-.71-15-.11-.95-1.61-1-1.5,0Z"/><path d="M68.66,1.67c2.63-.16,8.85-.87,9.24,2.79.41,3.87-5.3,4.53-8.05,3.67-.92-.29-1.32,1.16-.4,1.45,2.27.71,4.14.31,6.41-.22a4.1,4.1,0,0,0,3.55-4.2c.34-5.62-6.93-5.23-10.75-5-1,.06-1,1.56,0,1.5Z"/><path d="M25.14,16.21a75.55,75.55,0,0,1,5.49-15L29.25,1a111.75,111.75,0,0,0,5.9,15.6c.41.87,1.7.11,1.3-.76A109.09,109.09,0,0,1,30.7.61.76.76,0,0,0,29.33.43a77.39,77.39,0,0,0-5.64,15.38.75.75,0,0,0,1.45.4Z"/><path d="M27.14,11.06c1.78-.08,3.53,0,5.3.1,1,0,1-1.46,0-1.5-1.78-.08-3.52-.18-5.3-.1-1,0-1,1.55,0,1.5Z"/><path d="M63.91,1c-4-2.71-11.15,2.74-8,7.14C57.38,10.25,60,9.17,62,8.76c2.92-.58,5.21.62,3.35,3.72-1.61,2.68-4.22,3.85-7.17,2.27-.85-.46-1.61.84-.76,1.3a6.89,6.89,0,0,0,10.16-5.58A3.71,3.71,0,0,0,64.5,6.86c-1.18-.28-2.23.27-3.37.6-2.2.62-5.12-1-3.59-3.38,1.27-1.94,3.33-3.35,5.61-1.8.8.54,1.55-.76.76-1.3Z"/><path d="M101.54,1.46a33.94,33.94,0,0,0,5,8,.75.75,0,0,0,1.18-.15c1.24-2.69,2.69-5.28,3.73-8.06C111.8.4,110.35,0,110,.9c-1,2.65-2.39,5.13-3.58,7.7l1.18-.15A32.55,32.55,0,0,1,102.84.71c-.42-.87-1.71-.11-1.3.76Z"/><path d="M106.26,8.65c.08,2.51.09,5,.27,7.52.07,1,1.57,1,1.5,0-.18-2.5-.19-5-.27-7.52,0-1-1.53-1-1.5,0Z"/><path d="M84.36.21c-4.51,1-4.55,6.83-4.25,10.46s2.3,7.16,6.61,6.41c4.57-.79,4-6.47,3.83-10S89-.25,84.86.1c-1,.08-1,1.58,0,1.5,3.56-.3,4.18,3.11,4.18,6,0,1.77.42,6.26-1.11,7.5-1.26,1-4.35.3-5.35-.83s-.92-2.74-1-4.11c-.2-2.85-.37-7.66,3.19-8.48.94-.22.54-1.66-.4-1.45Z"/><path d="M90.45,1.61c3.22.34,6.48.09,9.71.3,1,.06,1-1.44,0-1.5-3.23-.21-6.49,0-9.71-.3-1-.1-1,1.4,0,1.5Z"/><path d="M94.64,1.52q.39,7.32.17,14.65a.75.75,0,0,0,1.5,0q.21-7.33-.17-14.65c-.05-1-1.55-1-1.5,0Z"/><g id="wheel_copy" data-name="wheel copy"><circle cx="123.52" cy="8.52" r="7.5" style="stroke:#000;stroke-miterlimit:10;stroke-width:0.75px;fill:url(#radial-gradient)"/><circle cx="123.52" cy="8.52" r="2.81"/><circle cx="123.52" cy="8.52" r="1.87" style="fill:#fff3f3"/></g></g></g></svg>